<?xml version="1.0" encoding="utf-8"?>
<!-- Generator: Adobe Illustrator 23.0.3, SVG Export Plug-In . SVG Version: 6.00 Build 0)  -->
<svg version="1.1" id="Layer_1" xmlns="http://www.w3.org/2000/svg" xmlns:xlink="http://www.w3.org/1999/xlink" x="0px" y="0px"
	 viewBox="0 0 150 150" style="enable-background:new 0 0 150 150;" xml:space="preserve">
<style type="text/css">
	.st0{fill-rule:evenodd;clip-rule:evenodd;fill:#1475DB;}
	.st1{fill-rule:evenodd;clip-rule:evenodd;fill:#1475DC;fill-opacity:0.25;}
</style>
<g id="Enterprise_Business_x2C__Office__x26__Finance_Icon_x5F_10_1_">
	<g id="Artboard-Copy-29_1_">
		<path id="Fill-40_1_" class="st0" d="M121.2,21.1h-2.7v-2.7c0-4.5-3.6-8.1-8.1-8.1H50.6c-0.7,0-1.4,0.3-1.9,0.8L21.5,38.1
			c-0.5,0.5-0.8,1.2-0.8,1.9v80.8c0,4.5,3.6,8.1,8.1,8.1h2.7v2.7c0,4.5,3.6,8.1,8.1,8.1h81.5c4.5,0,8.1-3.6,8.1-8.1V29.2
			C129.3,24.7,125.7,21.1,121.2,21.1L121.2,21.1z M47.8,19.5v15c0,1.5-1.2,2.7-2.7,2.7H30L47.8,19.5z M28.8,123.5
			c-1.5,0-2.7-1.2-2.7-2.7V42.7h19c4.5,0,8.1-3.6,8.1-8.1V15.7h57c1.5,0,2.7,1.2,2.7,2.7v5.4c0,0,0,0,0,0c0,0,0,0,0,0v97
			c0,1.5-1.2,2.7-2.7,2.7H28.8z M123.9,131.6c0,1.5-1.2,2.7-2.7,2.7H39.7c-1.5,0-2.7-1.2-2.7-2.7l0-2.7h73.3c4.5,0,8.1-3.6,8.1-8.1
			V26.5h2.7c1.5,0,2.7,1.2,2.7,2.7V131.6L123.9,131.6z"/>
		<path id="Path_1_" class="st1" d="M47.8,19.5v15c0,1.5-1.2,2.7-2.7,2.7H30L47.8,19.5z"/>
		<path class="st1" d="M123.9,131.6c0,1.5-1.2,2.7-2.7,2.7H39.7c-1.5,0-2.7-1.2-2.7-2.7l0-2.7h73.3c4.5,0,8.1-3.6,8.1-8.1V26.5h2.7
			c1.5,0,2.7,1.2,2.7,2.7V131.6L123.9,131.6z"/>
		<path id="Fill-42_1_" class="st0" d="M44.6,108.5l11.1-13.2l7.3,4.9c1.1,0.8,2.7,0.5,3.6-0.5l13.3-16.5L94.7,96v12.5H44.6z
			 M94.7,55.3v33.6L81.3,77.3c-0.5-0.5-1.3-0.7-2-0.6c-0.7,0.1-1.4,0.4-1.8,1L64,94.3l-7.3-4.9c-1.1-0.8-2.6-0.5-3.5,0.5l-11.6,13.8
			V55.3H94.7z M97.3,50H38.9c-1.5,0-2.7,1.2-2.7,2.7v58.5c0,0,0,0.1,0,0.1c0,0.2,0.1,0.4,0.1,0.6c0,0.2,0.1,0.3,0.1,0.5
			c0.1,0.1,0.2,0.3,0.3,0.4c0.1,0.2,0.2,0.3,0.4,0.4c0,0,0,0.1,0.1,0.1c0.1,0.1,0.3,0.2,0.4,0.2c0.1,0.1,0.2,0.1,0.3,0.2
			c0.3,0.1,0.6,0.2,1,0.2h0h58.5c1.5,0,2.7-1.2,2.7-2.7V52.7C100,51.2,98.8,50,97.3,50L97.3,50z"/>
		<path id="Fill-44_1_" class="st0" d="M57.8,63.9c4.2,0,7.7,3.5,7.7,7.7c0,4.2-3.5,7.7-7.7,7.7s-7.7-3.4-7.7-7.7
			C50.1,67.3,53.5,63.9,57.8,63.9 M57.8,84.5c7.1,0,12.9-5.8,12.9-12.9s-5.8-12.9-12.9-12.9c-7.1,0-12.9,5.8-12.9,12.9
			S50.6,84.5,57.8,84.5"/>
		<path class="st1" d="M57.8,63.9c4.2,0,7.7,3.5,7.7,7.7c0,4.2-3.5,7.7-7.7,7.7s-7.7-3.4-7.7-7.7C50.1,67.3,53.5,63.9,57.8,63.9"/>
	</g>
</g>
</svg>
