<?xml version="1.0" encoding="utf-8"?>
<!-- Generator: Adobe Illustrator 23.0.4, SVG Export Plug-In . SVG Version: 6.00 Build 0)  -->
<svg version="1.1" id="Layer_1" xmlns="http://www.w3.org/2000/svg" xmlns:xlink="http://www.w3.org/1999/xlink" x="0px" y="0px"
	 viewBox="0 0 133.6 106.9" style="enable-background:new 0 0 133.6 106.9;" xml:space="preserve">
<style type="text/css">
	.st0{fill-rule:evenodd;clip-rule:evenodd;fill:#1475DB;}
	.st1{fill-rule:evenodd;clip-rule:evenodd;fill:#1475DC;fill-opacity:0.25;}
</style>
<title>case study</title>
<desc>Created with Sketch.</desc>
<g id="case-study">
	<g id="Group" transform="translate(10.000000, 25.000000)">
		<path id="Fill-186" class="st0" d="M103.9,42.9H73.8c-1.3,0-2.3,1.2-2.3,2.6s1,2.6,2.3,2.6h30c1.3,0,2.3-1.2,2.3-2.6
			C106.2,44.1,105.2,42.9,103.9,42.9"/>
		<path id="Fill-188" class="st0" d="M117.2,72.6c0,1.3-1,2.3-2.3,2.3H46.5c-1.3,0-2.3-1-2.3-2.3V60.8c8.3-1.1,15.7-5.2,21-11.2
			l2.9-3.8c1.6-2.3,2.8-4.9,3.7-7.6h31.7c1.3,0,2.3-1,2.3-2.3s-1-2.3-2.3-2.3H73.2c0-0.2,0.1-0.3,0.1-0.5l0.4-4.1h29.8
			c1.3,0,2.3-1,2.3-2.3s-1-2.3-2.3-2.3H73.8c-0.1-1.6-0.3-3.1-0.6-4.6h30.4c1.3,0,2.3-1,2.3-2.3s-1-2.3-2.3-2.3H71.9L70.1,11
			c-5-9.8-14.6-16.9-25.9-18.5v-2.6l0,0l0,0v-4.5c0-1.3,1-2.3,2.3-2.3h47.9v16.1c0,3.8,3.1,6.9,6.8,6.9h16
			C117.2,6.1,117.2,72.6,117.2,72.6z M10,26.7C10,10.2,23.3-3.1,39.6-3.1c16.4,0,29.6,13.4,29.7,29.8c0,16.5-13.2,29.8-29.6,29.8
			S10.1,43.2,10,26.7L10,26.7z M0.7,69.5c-0.5,0.5-1.1,0.8-1.8,0.8s-1.3-0.2-1.8-0.8c-0.5-0.5-0.7-1.2-0.7-1.8
			c0-0.7,0.2-1.3,0.7-1.8l16.7-16.8c1.1,1.3,2.3,2.5,3.6,3.6L0.7,69.5z M99-13.7l15,15.1h-12.7c-1.3,0-2.3-1-2.3-2.3V-13.7z
			 M121.1,2.1l-22.8-23c-0.4-0.4-1-0.7-1.6-0.7H46.5c-3.8,0-6.8,3.1-6.8,6.9v2.3v4.6l0,0C20.8-7.8,5.5,7.6,5.5,26.6
			c0,6.9,2,13.3,5.5,18.7L-6.1,62.7c-1.4,1.4-2.1,3.2-2.1,5c0,1.8,0.7,3.7,2.1,5.1s3.2,2.1,5,2.1l0,0c1.8,0,3.6-0.7,5-2.1L21,55.6
			c0.9,0.6,1.7,1.1,2.6,1.6l4.6,2c3.6,1.3,7.4,2,11.4,2l0,0v11.5c0,3.8,3.1,6.9,6.8,6.9H108h4.6h2.3c3.8,0,6.8-3.1,6.8-6.9v-69
			C121.8,3.1,121.6,2.6,121.1,2.1L121.1,2.1z"/>
		<path id="Path" class="st1" d="M0.7,69.5c-0.5,0.5-1.1,0.8-1.8,0.8s-1.3-0.2-1.8-0.8c-0.5-0.5-0.7-1.2-0.7-1.8
			c0-0.7,0.2-1.3,0.7-1.8l16.7-16.8c1.1,1.3,2.3,2.5,3.6,3.6L0.7,69.5z"/>
		<path class="st1" d="M99-13.7l15,15.1h-12.7c-1.3,0-2.3-1-2.3-2.3V-13.7z"/>
		<path id="Fill-190" class="st0" d="M62.3,29c1.3,0,2.3-1,2.3-2.3c0-14.1-11.4-25.5-25.4-25.5c-1.3,0-2.3,1-2.3,2.3s1,2.3,2.3,2.3
			C50.7,5.8,60,15.2,60,26.7l0,0C60,28,61,29,62.3,29"/>
	</g>
</g>
</svg>
