<?xml version="1.0" encoding="utf-8"?>
<!-- Generator: Adobe Illustrator 23.0.3, SVG Export Plug-In . SVG Version: 6.00 Build 0)  -->
<svg version="1.1" id="Layer_1" xmlns="http://www.w3.org/2000/svg" xmlns:xlink="http://www.w3.org/1999/xlink" x="0px" y="0px"
	 viewBox="0 0 150 150" style="enable-background:new 0 0 150 150;" xml:space="preserve">
<style type="text/css">
	.st0{fill-rule:evenodd;clip-rule:evenodd;fill:#1475DB;}
	.st1{fill-rule:evenodd;clip-rule:evenodd;fill:#1475DC;fill-opacity:0.25;}
</style>
<g id="Enterprise_Business_x2C__Office__x26__Finance_Icon_x5F_5_1_">
	<g id="Artboard-Copy-24_1_">
		<path id="Fill-30_1_" class="st0" d="M121.2,21.1h-2.7v-2.7c0-4.5-3.6-8.1-8.1-8.1H50.6c-0.7,0-1.4,0.3-1.9,0.8L21.5,38.1
			c-0.5,0.5-0.8,1.2-0.8,1.9v80.8c0,4.5,3.6,8.1,8.1,8.1h2.7v2.7c0,4.5,3.6,8.1,8.1,8.1h81.5c4.5,0,8.1-3.6,8.1-8.1V29.2
			C129.3,24.7,125.7,21.1,121.2,21.1L121.2,21.1z M47.8,19.5v15c0,1.5-1.2,2.7-2.7,2.7H30L47.8,19.5z M28.8,123.5
			c-1.5,0-2.7-1.2-2.7-2.7V42.7h19c4.5,0,8.1-3.6,8.1-8.1V15.7h57c1.5,0,2.7,1.2,2.7,2.7v5.4c0,0,0,0,0,0c0,0,0,0,0,0v97
			c0,1.5-1.2,2.7-2.7,2.7H28.8z M123.9,131.6c0,1.5-1.2,2.7-2.7,2.7H39.7c-1.5,0-2.7-1.2-2.7-2.7l0-2.7h73.3c4.5,0,8.1-3.6,8.1-8.1
			V26.5h2.7c1.5,0,2.7,1.2,2.7,2.7V131.6L123.9,131.6z"/>
		<path id="Fill-32_1_" class="st0" d="M46.3,104.9c0.4,0.2,0.8,0.3,1.3,0.3c1,0,1.9-0.5,2.4-1.4l10.7-20.1l6.6,8.7
			c0.6,0.7,1.5,1.1,2.4,1c0.9-0.1,1.7-0.6,2.1-1.5l9.8-19.8l5.1,6.7c0.6,0.7,1.5,1.1,2.4,1c0.9-0.1,1.7-0.7,2.1-1.5l8.5-17.6
			c0.6-1.3,0.1-2.9-1.3-3.5c-1.3-0.6-2.9-0.1-3.6,1.3l-6.6,13.7l-5.1-6.7c-0.6-0.7-1.5-1.1-2.4-1c-0.9,0.1-1.7,0.6-2.1,1.5
			l-9.8,19.8l-6.5-8.5c-0.6-0.7-1.4-1.1-2.4-1c-0.9,0.1-1.7,0.6-2.2,1.4l-12.7,23.8C44.4,102.6,44.9,104.2,46.3,104.9"/>
		<path id="Fill-34_1_" class="st0" d="M97.3,110.1H41.6V57.9c0-1.5-1.2-2.7-2.7-2.7s-2.7,1.2-2.7,2.7v54.9c0,1.5,1.2,2.7,2.7,2.7
			h58.4c1.5,0,2.7-1.2,2.7-2.7S98.8,110.1,97.3,110.1"/>
		<path id="Path_9_" class="st1" d="M123.9,131.6c0,1.5-1.2,2.7-2.7,2.7H39.7c-1.5,0-2.7-1.2-2.7-2.7l0-2.7h73.3
			c4.5,0,8.1-3.6,8.1-8.1V26.5h2.7c1.5,0,2.7,1.2,2.7,2.7V131.6L123.9,131.6z"/>
		<path class="st1" d="M47.8,19.5v15c0,1.5-1.2,2.7-2.7,2.7H30L47.8,19.5z"/>
	</g>
</g>
</svg>
