<?xml version="1.0" encoding="utf-8"?>
<!-- Generator: Adobe Illustrator 23.0.4, SVG Export Plug-In . SVG Version: 6.00 Build 0)  -->
<svg version="1.1" id="Layer_1" xmlns="http://www.w3.org/2000/svg" xmlns:xlink="http://www.w3.org/1999/xlink" x="0px" y="0px"
	 viewBox="0 0 150 150" style="enable-background:new 0 0 150 150;" xml:space="preserve">
<style type="text/css">
	.st0{fill-rule:evenodd;clip-rule:evenodd;fill:#1475DB;}
	.st1{fill-rule:evenodd;clip-rule:evenodd;fill:#1475DC;fill-opacity:0.25;}
</style>
<title>infographic icon</title>
<desc>Created with Sketch.</desc>
<g id="infographic-icon">
	<g id="Group" transform="translate(10.000000, 21.000000)">
		<path id="Fill-115" class="st0" d="M75,22.3h5V2.5c0,0,0-0.1,0-0.1c0-0.3-0.1-0.6-0.2-0.9c0,0-0.1-0.1-0.1-0.1
			c-0.1-0.2-0.3-0.5-0.4-0.7c-0.2-0.2-0.4-0.3-0.7-0.4c-0.1,0-0.1-0.1-0.2-0.1C78.2,0.1,77.9,0,77.5,0c0,0,0,0,0,0h-20v5h14L0.7,75
			c-1,1-1,2.5,0,3.5c0.5,0.5,1.1,0.7,1.8,0.7s1.3-0.2,1.8-0.7L75,8.5V22.3z M97.5,29.7h-20c-0.7,0-1.3,0.3-1.8,0.7
			c-0.5,0.5-0.7,1.1-0.7,1.8v74.3c0,0.7,0.3,1.3,0.7,1.7c0.5,0.5,1.1,0.7,1.8,0.7h20c0.7,0,1.3-0.3,1.8-0.7c0.5-0.5,0.7-1.1,0.7-1.7
			V32.2c0-0.7-0.3-1.3-0.7-1.8C98.8,30,98.2,29.7,97.5,29.7L97.5,29.7z M80,104h15V34.7H80V104z M67.5,59.5h-20
			c-0.7,0-1.3,0.3-1.8,0.7c-0.5,0.5-0.7,1.1-0.7,1.8v44.6c0,0.7,0.3,1.3,0.7,1.7c0.5,0.5,1.1,0.7,1.8,0.7h20c0.7,0,1.3-0.3,1.8-0.7
			c0.5-0.5,0.7-1.1,0.7-1.7V61.9c0-0.7-0.3-1.3-0.7-1.8C68.8,59.7,68.2,59.4,67.5,59.5L67.5,59.5z M50,104h15V64.4H50V104z
			 M37.5,84.2h-20c-0.7,0-1.3,0.3-1.8,0.7C15.3,85.4,15,86,15,86.7v19.8c0,0.7,0.3,1.3,0.7,1.7c0.5,0.5,1.1,0.7,1.8,0.7h20
			c0.7,0,1.3-0.3,1.8-0.7c0.5-0.5,0.7-1.1,0.7-1.7V86.7c0-0.7-0.3-1.3-0.7-1.8C38.8,84.5,38.2,84.2,37.5,84.2L37.5,84.2z M20,104h15
			V89.2H20V104z M129.3,0.7c-0.5-0.5-1.1-0.7-1.8-0.7h-20c-0.7,0-1.3,0.3-1.8,0.7c-0.5,0.5-0.7,1.1-0.7,1.8v104
			c0,0.7,0.3,1.3,0.7,1.7c0.5,0.5,1.1,0.7,1.8,0.7h20c0.7,0,1.3-0.3,1.8-0.7c0.5-0.5,0.7-1.1,0.7-1.7V2.5
			C130,1.8,129.7,1.2,129.3,0.7L129.3,0.7z M110,104h15V5h-15V104z"/>
		<polygon id="Path" class="st1" points="110,104 125,104 125,5 110,5 		"/>
		<polygon class="st1" points="20,104 35,104 35,89.2 20,89.2 		"/>
		<polygon class="st1" points="50,104 65,104 65,64.4 50,64.4 		"/>
		<polygon class="st1" points="80,104 95,104 95,34.7 80,34.7 		"/>
	</g>
</g>
</svg>
