<?xml version="1.0" encoding="utf-8"?>
<!-- Generator: Adobe Illustrator 23.0.4, SVG Export Plug-In . SVG Version: 6.00 Build 0)  -->
<svg version="1.1" id="Layer_1" xmlns="http://www.w3.org/2000/svg" xmlns:xlink="http://www.w3.org/1999/xlink" x="0px" y="0px"
	 viewBox="0 0 150 150" style="enable-background:new 0 0 150 150;" xml:space="preserve">
<style type="text/css">
	.st0{fill-rule:evenodd;clip-rule:evenodd;fill:#1475DB;}
	.st1{fill-rule:evenodd;clip-rule:evenodd;fill:#1475DC;fill-opacity:0.25;stroke:#1475DC;stroke-width:5;}
</style>
<title>video icon</title>
<desc>Created with Sketch.</desc>
<g id="video-icon">
	<g id="Group" transform="translate(11.000000, 11.000000)">
		<path id="Fill-251" class="st0" d="M65,125C31.9,125,5,98.1,5,65S31.9,5,65,5s60,26.9,60,60S98.1,125,65,125 M65,0
			C29.2,0,0,29.2,0,65s29.2,65,65,65s65-29.2,65-65S100.8,0,65,0"/>
		<path id="Triangle" class="st1" d="M93.6,67.6L47.9,90.5c-1,0.5-2.1,0.1-2.6-0.9c-0.1-0.3-0.2-0.6-0.2-0.9V43
			c0-1.1,0.9-1.9,1.9-1.9c0.3,0,0.6,0.1,0.9,0.2l45.8,22.9c1,0.5,1.3,1.6,0.9,2.6C94.3,67.1,94,67.4,93.6,67.6z"/>
	</g>
</g>
</svg>
