<?xml version="1.0" encoding="utf-8"?>
<!-- Generator: Adobe Illustrator 23.0.4, SVG Export Plug-In . SVG Version: 6.00 Build 0)  -->
<svg version="1.1" id="Layer_1" xmlns="http://www.w3.org/2000/svg" xmlns:xlink="http://www.w3.org/1999/xlink" x="0px" y="0px"
	 viewBox="0 0 150 150" style="enable-background:new 0 0 150 150;" xml:space="preserve">
<style type="text/css">
	.st0{filter:url(#Adobe_OpacityMaskFilter);}
	.st1{fill-rule:evenodd;clip-rule:evenodd;fill:#FFFFFF;}
	.st2{mask:url(#mask-2_1_);fill-rule:evenodd;clip-rule:evenodd;fill:#1475DC;}
	.st3{filter:url(#Adobe_OpacityMaskFilter_1_);}
	.st4{mask:url(#mask-4_1_);fill-rule:evenodd;clip-rule:evenodd;fill:#1475DC;fill-opacity:0.25;}
</style>
<title>webcast icon</title>
<desc>Created with Sketch.</desc>
<g id="webcast-icon">
	<g id="Group-7" transform="translate(10.000000, 19.000000)">
		<g id="Group-3" transform="translate(0.000000, 0.326369)">
			<g id="Clip-2">
			</g>
			<defs>
				<filter id="Adobe_OpacityMaskFilter" filterUnits="userSpaceOnUse" x="-5" y="-2.8" width="138.2" height="120.1">
					<feColorMatrix  type="matrix" values="1 0 0 0 0  0 1 0 0 0  0 0 1 0 0  0 0 0 1 0"/>
				</filter>
			</defs>
			<mask maskUnits="userSpaceOnUse" x="-5" y="-2.8" width="138.2" height="120.1" id="mask-2_1_">
				<g class="st0">
					<path id="path-1_1_" class="st1" d="M119.5,2.4h-59H10.1c-5.4,0-9.8,4.3-9.8,9.5l0,0v71.6c0,5.3,4.4,9.5,9.8,9.5l0,0h39.2V99
						l-13.6,8.8c-0.9,0.6-1.3,1.7-1,2.7l0,0c0.3,1,1.3,1.7,2.3,1.7l0,0h53.9c1.1,0,2-0.7,2.3-1.7l0,0c0.3-1-0.1-2.1-1-2.7l0,0
						L78.7,99v-5.9h39.2c5.4,0,9.8-4.3,9.8-9.5l0,0v-43l0.2-29.9C128,6.2,124.2,2.4,119.5,2.4L119.5,2.4L119.5,2.4z M5.2,11.9
						c0-2.6,2.2-4.8,4.9-4.8l0,0l49,0h58.4c2.9,0,5.3,2.3,5.3,5.2l0,0v28.3v28.6H64H5.2V11.9z M5.2,83.5V74h117.6v9.6
						c0,2.6-2.2,4.8-4.9,4.8l0,0H10.1C7.4,88.3,5.2,86.2,5.2,83.5L5.2,83.5z M53.1,102.2c0.7-0.4,1.1-1.2,1.1-2l0,0v-7.2h19.6v7.2
						c0,0.8,0.4,1.5,1.1,2l0,0l8,5.2H45.1L53.1,102.2z M59.1,78.8c-1.4,0-2.4,1.1-2.4,2.4l0,0c0,1.3,1.1,2.4,2.4,2.4l0,0h9.8
						c1.4,0,2.5-1.1,2.5-2.4l0,0c0-1.3-1.1-2.4-2.5-2.4l0,0H59.1z"/>
				</g>
			</mask>
			<polygon id="Fill-1" class="st2" points="-5,117.3 133.2,117.3 133.2,-2.8 -5,-2.8 			"/>
		</g>
		<g id="Group-6" transform="translate(5.000000, 6.628292)">
			<g id="Clip-5">
			</g>
			<defs>
				<filter id="Adobe_OpacityMaskFilter_1_" filterUnits="userSpaceOnUse" x="-5.1" y="-4.3" width="128.2" height="72.4">
					<feColorMatrix  type="matrix" values="1 0 0 0 0  0 1 0 0 0  0 0 1 0 0  0 0 0 1 0"/>
				</filter>
			</defs>
			<mask maskUnits="userSpaceOnUse" x="-5.1" y="-4.3" width="128.2" height="72.4" id="mask-4_1_">
				<g class="st3">
					<path id="path-3_1_" class="st1" d="M0.2,5.6v57.3H59h58.8V34.3V6c0-2.9-2.4-5.2-5.3-5.2l0,0H54.1l-49,0C2.4,0.9,0.2,3,0.2,5.6
						L0.2,5.6z"/>
				</g>
			</mask>
			<polygon id="Fill-4" class="st4" points="-5.1,68.1 123.1,68.1 123.1,-4.3 -5.1,-4.3 			"/>
		</g>
	</g>
</g>
</svg>
