<?xml version="1.0" encoding="utf-8"?>
<!-- Generator: Adobe Illustrator 23.0.4, SVG Export Plug-In . SVG Version: 6.00 Build 0)  -->
<svg version="1.1" id="Layer_1" xmlns="http://www.w3.org/2000/svg" xmlns:xlink="http://www.w3.org/1999/xlink" x="0px" y="0px"
	 viewBox="0 0 150 150" style="enable-background:new 0 0 150 150;" xml:space="preserve">
<style type="text/css">
	.st0{opacity:0.25;fill:#1475DC;enable-background:new    ;}
	.st1{fill:#1475DC;}
</style>
<title>whitepaper icon</title>
<desc>Created with Sketch.</desc>
<g id="whitepaper-icon">
	<g transform="translate(21.000000, 11.000000)">
		<path id="Shape" class="st0" d="M8.2,113.3c-1.5,0-2.7-1.2-2.7-2.7V32.5h19c4.5,0,8.2-3.6,8.2-8.1V5.6h57.1c1.5,0,2.7,1.2,2.7,2.7
			v5.4c0,0,0,0,0,0c0,0,0,0,0,0v97c0,1.5-1.2,2.7-2.7,2.7H8.2z M100.6,11h-2.7V8.3c0-4.5-3.6-8.1-8.1-8.1H29.9
			c-0.7,0-1.4,0.3-1.9,0.8L0.8,27.9C0.3,28.4,0,29.1,0,29.8v80.8c0,4.5,3.6,8.1,8.2,8.1h2.7v2.7c0,4.5,3.7,8.1,8.2,8.1h81.6
			c4.5,0,8.2-3.6,8.2-8.1V19C108.7,14.6,105.1,11,100.6,11z M57.1,75.6H19c-1.5,0-2.7,1.2-2.7,2.7c0,1.5,1.2,2.7,2.7,2.7h38.1
			c1.5,0,2.7-1.2,2.7-2.7C59.8,76.8,58.6,75.6,57.1,75.6z M78.8,64.8H19c-1.5,0-2.7,1.2-2.7,2.7c0,1.5,1.2,2.7,2.7,2.7h59.8
			c1.5,0,2.7-1.2,2.7-2.7C81.6,66,80.3,64.8,78.8,64.8z M78.8,54.1H19c-1.5,0-2.7,1.2-2.7,2.7c0,1.5,1.2,2.7,2.7,2.7h59.8
			c1.5,0,2.7-1.2,2.7-2.7C81.6,55.3,80.3,54.1,78.8,54.1z M78.8,43.3H19c-1.5,0-2.7,1.2-2.7,2.7c0,1.5,1.2,2.7,2.7,2.7h59.8
			c1.5,0,2.7-1.2,2.7-2.7C81.6,44.5,80.3,43.3,78.8,43.3z"/>
		<path class="st1" d="M103.3,121.4c0,1.5-1.2,2.7-2.7,2.7H19c-1.5,0-2.7-1.2-2.7-2.7v-2.7h73.4c4.5,0,8.1-3.6,8.1-8.1V16.3h2.7
			c1.5,0,2.7,1.2,2.7,2.7L103.3,121.4L103.3,121.4z M8.2,113.3c-1.5,0-2.7-1.2-2.7-2.7V32.5h19c4.5,0,8.2-3.6,8.2-8.1V5.6h57.1
			c1.5,0,2.7,1.2,2.7,2.7v5.4c0,0,0,0,0,0c0,0,0,0,0,0v97c0,1.5-1.2,2.7-2.7,2.7H8.2z M27.2,9.4v15.1c0,1.5-1.2,2.7-2.7,2.7H9.3
			L27.2,9.4z M100.6,11h-2.7V8.3c0-4.5-3.6-8.1-8.1-8.1H29.9c-0.7,0-1.4,0.3-1.9,0.8L0.8,27.9C0.3,28.4,0,29.1,0,29.8v80.8
			c0,4.5,3.6,8.1,8.2,8.1h2.7v2.7c0,4.5,3.7,8.1,8.2,8.1h81.6c4.5,0,8.2-3.6,8.2-8.1V19C108.7,14.6,105.1,11,100.6,11z M57.1,75.6
			H19c-1.5,0-2.7,1.2-2.7,2.7c0,1.5,1.2,2.7,2.7,2.7h38.1c1.5,0,2.7-1.2,2.7-2.7C59.8,76.8,58.6,75.6,57.1,75.6z M78.8,64.8H19
			c-1.5,0-2.7,1.2-2.7,2.7c0,1.5,1.2,2.7,2.7,2.7h59.8c1.5,0,2.7-1.2,2.7-2.7C81.6,66,80.3,64.8,78.8,64.8z M78.8,54.1H19
			c-1.5,0-2.7,1.2-2.7,2.7c0,1.5,1.2,2.7,2.7,2.7h59.8c1.5,0,2.7-1.2,2.7-2.7C81.6,55.3,80.3,54.1,78.8,54.1z M78.8,43.3H19
			c-1.5,0-2.7,1.2-2.7,2.7c0,1.5,1.2,2.7,2.7,2.7h59.8c1.5,0,2.7-1.2,2.7-2.7C81.6,44.5,80.3,43.3,78.8,43.3z"/>
	</g>
</g>
</svg>
